<svg width="84" height="83" viewBox="0 0 84 83" fill="none" xmlns="http://www.w3.org/2000/svg">
<g filter="url(#filter0_df_3032_500)">
<ellipse cx="24.9318" cy="25.5993" rx="24.9318" ry="25.5993" transform="matrix(0.0100442 -0.999875 -0.999958 -0.00952647 67.1326 66.6974)" fill="url(#paint0_linear_3032_500)"/>
</g>
<path d="M28.7186 41.3007C28.4166 34.7075 33.9014 29.326 40.9629 29.3151C48.0115 29.3042 54.0014 34.6679 54.3035 41.2611C54.6061 47.8662 49.1079 53.2358 42.0593 53.2467C34.9979 53.2576 29.0212 47.9058 28.7186 41.3007ZM39.1521 44.8027C38.7843 45.1503 38.8106 45.7247 39.1975 46.0711C39.5977 46.4295 40.1989 46.4286 40.5534 46.069L44.8278 41.91C44.9992 41.7422 45.0911 41.5147 45.0802 41.2753C45.0692 41.036 44.9564 40.8088 44.7697 40.6416L40.1149 36.4964C39.9276 36.3172 39.6807 36.2338 39.4376 36.2342C39.1818 36.2346 38.9425 36.3187 38.7589 36.4985C38.4044 36.858 38.4301 37.4204 38.8298 37.7668L42.7647 41.2789L39.1521 44.8027Z" fill="black"/>
<defs>
<filter id="filter0_df_3032_500" x="0.185303" y="0.59491" width="83.199" height="81.8599" filterUnits="userSpaceOnUse" color-interpolation-filters="sRGB">
<feFlood flood-opacity="0" result="BackgroundImageFix"/>
<feColorMatrix in="SourceAlpha" type="matrix" values="0 0 0 0 0 0 0 0 0 0 0 0 0 0 0 0 0 0 127 0" result="hardAlpha"/>
<feOffset dy="2.19057"/>
<feGaussianBlur stdDeviation="1.09529"/>
<feComposite in2="hardAlpha" operator="out"/>
<feColorMatrix type="matrix" values="0 0 0 0 0 0 0 0 0 0 0 0 0 0 0 0 0 0 0.25 0"/>
<feBlend mode="normal" in2="BackgroundImageFix" result="effect1_dropShadow_3032_500"/>
<feBlend mode="normal" in="SourceGraphic" in2="effect1_dropShadow_3032_500" result="shape"/>
<feGaussianBlur stdDeviation="8" result="effect2_foregroundBlur_3032_500"/>
</filter>
<linearGradient id="paint0_linear_3032_500" x1="24.9318" y1="0" x2="24.9318" y2="51.1986" gradientUnits="userSpaceOnUse">
<stop offset="0.0001" stop-color="#5FBCFF"/>
<stop offset="1" stop-color="#A471FB"/>
</linearGradient>
</defs>
</svg>
