<svg width="26" height="19" viewBox="0 0 26 19" fill="none" xmlns="http://www.w3.org/2000/svg">
<path d="M25.0264 6.19141C25.2168 6.04004 25.5 6.18164 25.5 6.4209V16.4062C25.5 17.7002 24.4502 18.75 23.1562 18.75H2.84375C1.5498 18.75 0.5 17.7002 0.5 16.4062V6.42578C0.5 6.18164 0.77832 6.04492 0.973633 6.19629C2.06738 7.0459 3.51758 8.125 8.49805 11.7432C9.52832 12.4951 11.2666 14.0771 13 14.0674C14.7432 14.082 16.5156 12.4658 17.5068 11.7432C22.4873 8.125 23.9326 7.04102 25.0264 6.19141ZM13 12.5C14.1328 12.5195 15.7637 11.0742 16.584 10.4785C23.0635 5.77637 23.5566 5.36621 25.0508 4.19434C25.334 3.97461 25.5 3.63281 25.5 3.27148V2.34375C25.5 1.0498 24.4502 0 23.1562 0H2.84375C1.5498 0 0.5 1.0498 0.5 2.34375V3.27148C0.5 3.63281 0.666016 3.96973 0.949219 4.19434C2.44336 5.36133 2.93652 5.77637 9.41602 10.4785C10.2363 11.0742 11.8672 12.5195 13 12.5Z" fill="#5FBCFF"/>
</svg>
