<svg width="30" height="31" viewBox="0 0 30 31" fill="none" xmlns="http://www.w3.org/2000/svg">
<path d="M11.9551 26.3567C11.9549 26.176 11.8747 26.0047 11.7361 25.8888C11.5965 25.7746 11.4142 25.7264 11.2363 25.7567C9.29774 26.1162 6.8391 26.121 6.12507 24.1151C5.68587 23.0429 4.98203 22.0996 4.07938 21.3735C3.89255 21.2776 3.72416 21.1495 3.58194 20.995C3.5339 20.7013 3.28079 20.4854 2.98335 20.4842H2.9809C2.64538 20.4842 2.37293 20.7556 2.37159 21.0913C2.36802 21.7865 3.23795 22.3068 3.495 22.4437C4.14089 23.024 4.64942 23.741 4.98382 24.5425C5.40867 25.7365 6.70344 27.5841 10.7389 27.0687C10.7425 27.5127 10.7484 27.7425 10.7532 27.9175L10.7591 28.277C10.7591 28.6136 11.0319 28.8865 11.3684 28.8865C11.7049 28.8865 11.9777 28.6136 11.9777 28.277L11.9718 27.884C11.9646 27.6388 11.9551 27.2853 11.9551 26.3567ZM25.6859 7.2892C25.649 7.24278 25.6097 7.19397 25.5692 7.14516C25.6511 6.8875 25.7154 6.62463 25.762 6.35834C25.9506 5.05011 25.7834 3.71517 25.2777 2.49398C25.211 2.3262 25.0732 2.19667 24.9016 2.14049C24.7291 2.08335 23.1546 1.65955 19.8689 3.82498C17.1161 3.125 14.232 3.125 11.4791 3.82498C8.19456 1.68455 6.62965 2.08573 6.45591 2.13692C6.28104 2.19213 6.14002 2.32271 6.07152 2.49287C5.5566 3.7325 5.39037 5.08932 5.59074 6.4166C5.63738 6.65997 5.69658 6.90074 5.76806 7.13802C5.72522 7.19047 5.68476 7.24278 5.64667 7.29397C4.61505 8.60324 4.06614 10.2283 4.09247 11.8951C4.0895 12.2732 4.10698 12.6511 4.14484 13.0273C4.55897 18.7129 8.2255 20.295 11.3923 20.8354C11.186 21.2053 11.0319 21.6019 10.934 22.014C10.8539 22.3407 11.0536 22.6707 11.3803 22.7509C11.707 22.8311 12.0368 22.6312 12.117 22.3045C12.2297 21.7441 12.5127 21.2323 12.9273 20.839C13.1809 20.6171 13.2067 20.2317 12.9849 19.978C12.8849 19.8638 12.746 19.7909 12.5953 19.7736C9.23585 19.3926 5.74902 18.2819 5.35861 12.9166C5.32417 12.5772 5.30833 12.2362 5.31108 11.8951C5.2881 10.496 5.7488 9.1318 6.61537 8.03324C6.70701 7.90943 6.80935 7.79634 6.9105 7.68443C7.06499 7.5139 7.11058 7.2709 7.02832 7.05587C6.92434 6.78095 6.84505 6.49733 6.7915 6.20827C6.64557 5.22831 6.74286 4.22751 7.07473 3.29404C8.5219 3.4956 9.88859 4.08138 11.0327 4.99044C11.1805 5.09014 11.3646 5.11975 11.5361 5.07139C14.2468 4.33569 17.1046 4.33569 19.8153 5.07139C19.9878 5.1196 20.1727 5.08954 20.321 4.98925C21.4571 4.07081 22.8233 3.48154 24.2708 3.28571C24.5988 4.20511 24.698 5.19066 24.56 6.15708C24.5062 6.46422 24.422 6.76533 24.3089 7.05587C24.2266 7.2709 24.2722 7.51383 24.4267 7.68443C24.5338 7.80229 24.6409 7.93443 24.7349 8.05228C25.6035 9.14237 26.0648 10.5013 26.0393 11.8951C26.0421 12.2438 26.025 12.5924 25.9881 12.9392C25.6014 18.2795 22.1014 19.3902 18.7289 19.7736C18.3942 19.812 18.1541 20.1146 18.1925 20.4494C18.2098 20.6001 18.2827 20.739 18.3968 20.8389C18.8169 21.2351 19.0982 21.756 19.199 22.3246C19.3028 22.7261 19.3512 23.1399 19.3429 23.5544V26.552C19.3299 27.3758 19.3299 27.9936 19.3299 28.2769C19.3303 28.6135 19.6035 28.886 19.94 28.8856C20.2758 28.8851 20.548 28.6128 20.5485 28.2769C20.5485 27.9959 20.5485 27.3852 20.5615 26.5615V23.5544C20.5711 23.0382 20.5098 22.5231 20.3795 22.0234C20.2878 21.608 20.1372 21.208 19.9321 20.8354C23.1107 20.2961 26.7914 18.7152 27.2021 13.0522C27.2424 12.6678 27.261 12.2815 27.258 11.8951C27.2857 10.2235 26.7298 8.59468 25.6859 7.2892Z" fill="white"/>
</svg>
