<svg width="30" height="30" viewBox="0 0 30 30" fill="none" xmlns="http://www.w3.org/2000/svg">
<path d="M25.0097 24.7058C24.7574 24.7058 24.5527 24.501 24.5527 24.2487V12.3632C24.5527 12.1109 24.7574 11.9061 25.0097 11.9061C25.2619 11.9061 25.4667 12.1109 25.4667 12.3632V24.2487C25.4667 24.501 25.2619 24.7058 25.0097 24.7058ZM4.90267 24.7058C4.65042 24.7058 4.44569 24.501 4.44569 24.2487V12.3632C4.44569 12.1109 4.65042 11.9061 4.90267 11.9061C5.15492 11.9061 5.35965 12.1109 5.35965 12.3632V24.2487C5.35965 24.501 5.15492 24.7058 4.90267 24.7058ZM14.9562 13.2153C14.8657 13.2153 14.7761 13.1888 14.6984 13.1358L3.58018 5.52539C3.3718 5.38276 3.31879 5.09843 3.46136 4.88997C3.60394 4.68152 3.88727 4.62758 4.09656 4.77112L14.9562 12.2041L23.1434 6.60057C23.3527 6.45794 23.6369 6.51189 23.7786 6.71942C23.9212 6.92788 23.8682 7.21222 23.6598 7.35484L15.2148 13.1348C15.1362 13.1888 15.0467 13.2153 14.9562 13.2153Z" fill="white"/>
<path d="M26.3808 24.7058H3.53196C2.27253 24.7058 1.24707 23.68 1.24707 22.4201V6.87759C1.24707 6.62525 1.4518 6.42046 1.70405 6.42046C1.9563 6.42046 2.16103 6.62525 2.16103 6.87759V22.4201C2.16103 23.1762 2.77612 23.7915 3.53196 23.7915H26.3808C27.1367 23.7915 27.7518 23.1762 27.7518 22.4201V6.87759C27.7518 6.12149 27.1367 5.50619 26.3808 5.50619C26.1286 5.50619 25.9239 5.30139 25.9239 5.04905C25.9239 4.79672 26.1286 4.59192 26.3808 4.59192C27.6403 4.59192 28.6657 5.61773 28.6657 6.87759V22.4201C28.6657 23.68 27.6403 24.7058 26.3808 24.7058Z" fill="white"/>
<path d="M14.9564 17.3917C14.8659 17.3917 14.7754 17.3652 14.6968 17.3112L2.22135 8.7043C1.61082 8.28373 1.24707 7.58889 1.24707 6.84742C1.24707 5.60401 2.25882 4.59192 3.5018 4.59192H26.4101C27.654 4.59192 28.6657 5.60401 28.6657 6.84742C28.6657 7.58889 28.302 8.28282 27.6915 8.7043L15.216 17.3112C15.1374 17.3652 15.0469 17.3917 14.9564 17.3917ZM3.5018 5.50619C2.76241 5.50619 2.16103 6.10778 2.16103 6.84742C2.16103 7.28901 2.37763 7.70134 2.74047 7.95185L14.9564 16.3796L27.1723 7.95185C27.5352 7.70134 27.7518 7.28901 27.7518 6.84742C27.7518 6.10778 27.1504 5.50619 26.411 5.50619H3.5018Z" fill="white"/>
</svg>
