<svg width="30" height="30" viewBox="0 0 30 30" fill="none" xmlns="http://www.w3.org/2000/svg">
<g clip-path="url(#clip0_3047_1042)">
<path d="M23.1786 27.5976C22.8112 27.5976 22.4082 27.4769 21.9722 27.2365L12.0988 19.9443C11.9882 19.8629 11.9205 19.7358 11.9132 19.5987C11.9068 19.4616 11.9617 19.329 12.064 19.2366L23.759 8.70885C23.9464 8.53971 24.2352 8.55434 24.4043 8.74267C24.5733 8.9301 24.5578 9.21901 24.3704 9.38815L13.0922 19.542L22.4639 26.4685C22.7116 26.6011 23.1302 26.7693 23.4282 26.6312C23.7316 26.4923 23.8815 26.0489 23.9546 25.7014L27.9531 6.85197C28.1085 6.22935 28.0336 5.72833 27.7566 5.49794C27.5455 5.3224 27.2311 5.3096 26.8911 5.46319L3.38785 14.5309C2.66674 14.8207 2.44008 15.1188 2.44373 15.2175C2.44648 15.2824 2.60185 15.4616 3.06522 15.6033L8.89169 17.4227L15.2885 13.3853C15.5023 13.2518 15.7838 13.3149 15.9182 13.528C16.0525 13.741 15.9895 14.0235 15.7756 14.1579L9.20061 18.3077C9.08728 18.3791 8.94744 18.3973 8.8204 18.358L2.79561 16.4765C1.72628 16.1492 1.54349 15.5713 1.53069 15.2559C1.51241 14.8235 1.76192 14.1981 3.05426 13.6806L26.5383 4.62207C27.1754 4.33133 27.859 4.3935 28.3425 4.79669C28.9027 5.26388 29.0855 6.08855 28.8442 7.05859L24.8494 25.8907C24.6812 26.6934 24.3321 27.2228 23.8102 27.4623C23.6137 27.5528 23.4035 27.5976 23.1786 27.5976Z" fill="white"/>
<path d="M23.1786 27.5976C22.8112 27.5976 22.4082 27.4769 21.9722 27.2365L15.8304 22.7026C15.6275 22.5527 15.5837 22.2656 15.7345 22.0636C15.8844 21.8606 16.1713 21.8167 16.3733 21.9676L22.4639 26.4685C22.7116 26.6011 23.1302 26.7693 23.4282 26.6312C23.7316 26.4923 23.8815 26.0489 23.9546 25.7014L27.9531 6.85197C28.1085 6.22935 28.0336 5.72833 27.7566 5.49794C27.5455 5.3224 27.2311 5.3096 26.8911 5.46319L3.38785 14.5309C2.66674 14.8207 2.44008 15.1188 2.44373 15.2175C2.44648 15.2824 2.60185 15.4616 3.06522 15.6033L9.09185 17.4849C9.23625 17.5297 9.34867 17.644 9.39345 17.7884L11.4654 24.6098C11.5211 24.7625 11.5641 24.9142 11.6016 25.0459C11.6308 25.1501 11.6674 25.28 11.692 25.3184C11.6884 25.3138 11.7615 25.3357 11.9562 25.3366C12.3647 25.3366 12.5201 25.184 12.8308 24.8813L14.348 23.4057C14.529 23.2283 14.8178 23.2338 14.9942 23.4148C15.1697 23.5959 15.166 23.8857 14.985 24.0612L13.4935 25.5104C13.126 25.8697 12.7367 26.25 11.9562 26.25C11.0605 26.25 10.8795 25.8532 10.7214 25.2937C10.6894 25.1803 10.6529 25.0496 10.598 24.8987L8.58917 18.2858L2.79561 16.4765C1.72628 16.1492 1.54349 15.5713 1.53069 15.2559C1.51241 14.8235 1.76192 14.1981 3.05426 13.6806L26.5383 4.62207C27.1754 4.33133 27.859 4.3935 28.3425 4.79669C28.9027 5.26388 29.0855 6.08855 28.8442 7.05859L24.8494 25.8907C24.6812 26.6934 24.3321 27.2228 23.8102 27.4623C23.6137 27.5528 23.4035 27.5976 23.1786 27.5976Z" fill="white"/>
<path d="M17.5238 12.8201C17.5238 13.0715 17.3182 13.2771 17.0668 13.2771C16.8155 13.2771 16.6099 13.0715 16.6099 12.8201C16.6099 12.5688 16.8155 12.3632 17.0668 12.3632C17.3182 12.3632 17.5238 12.5688 17.5238 12.8201Z" fill="white"/>
<path d="M43.1433 16.4293C43.1433 30.6954 31.5823 42.2602 17.3214 42.2602C3.06054 42.2602 -8.50049 30.6954 -8.50049 16.4293C-8.50049 2.16306 3.06054 -9.40167 17.3214 -9.40167C31.5823 -9.40167 43.1433 2.16306 43.1433 16.4293Z" stroke="#DFDFDF"/>
</g>
<defs>
<clipPath id="clip0_3047_1042">
<rect width="29.2466" height="29.2566" fill="white" transform="translate(0.615723 0.0205688)"/>
</clipPath>
</defs>
</svg>
