<svg width="30" height="30" viewBox="0 0 30 30" fill="none" xmlns="http://www.w3.org/2000/svg">
<g clip-path="url(#clip0_3047_1047)">
<path d="M15.3844 28.3629C12.7632 28.3629 10.2242 27.6214 8.02703 26.2171L3.1392 27.7796C2.9756 27.8317 2.79555 27.7878 2.674 27.6653C2.55335 27.5428 2.51131 27.3617 2.56706 27.199L4.14364 22.4942C2.52593 20.1902 1.67139 17.4831 1.67139 14.6488C1.67139 10.9223 3.14468 7.43435 5.81983 4.82777C5.99988 4.65223 6.2896 4.65589 6.466 4.836C6.64148 5.01702 6.63782 5.30684 6.45686 5.48238C3.96085 7.91617 2.58534 11.171 2.58534 14.6488C2.58534 17.3679 3.42801 19.9617 5.02103 22.1495C5.10786 22.2693 5.13162 22.4238 5.0841 22.5646L3.72047 26.6349L7.95483 25.2809C8.08644 25.2379 8.23084 25.2589 8.34692 25.3348C10.4353 26.7172 12.8692 27.4486 15.3844 27.4486C22.4383 27.4486 28.1761 21.707 28.1761 14.6488C28.1761 7.5916 22.4383 1.84908 15.3844 1.84908H15.3816C13.4011 1.84908 11.5083 2.28885 9.74801 3.15557C9.52135 3.2662 9.24808 3.17386 9.13658 2.94803C9.02507 2.72221 9.11738 2.44701 9.34496 2.33547C11.2314 1.40658 13.2622 0.934814 15.3771 0.934814C22.941 0.934814 29.09 7.08693 29.09 14.6488C29.09 22.2107 22.941 28.3629 15.3844 28.3629Z" fill="white"/>
<path d="M19.5865 22.4137C18.6624 22.4137 17.3729 22.0572 15.5294 21.2928C13.123 20.2963 10.7375 18.2081 8.81184 15.415L8.74329 15.3172C8.10718 14.4477 7.07715 12.7819 7.07715 11.043C7.07715 9.00507 8.09621 7.97104 8.53217 7.52945C8.94253 7.10797 9.5558 6.88397 10.2449 6.88397C10.4186 6.88397 10.5739 6.8922 10.7156 6.90043C11.296 6.92329 11.6323 7.06957 11.9522 7.83481L12.284 8.63937C12.6349 9.49055 13.0672 10.541 13.1348 10.6828C13.2098 10.8373 13.4374 11.3118 13.1842 11.8055C13.0489 12.0944 12.9164 12.2471 12.7345 12.4574C12.6066 12.6045 12.5216 12.696 12.4348 12.7874C12.3342 12.8953 12.2319 13.0013 12.1295 13.1303C11.9531 13.3369 11.9531 13.3369 12.0125 13.4402C12.3507 14.0116 13.07 15.1087 14.0717 16.0001C15.3713 17.1567 16.4214 17.5818 16.9259 17.7866L17.0511 17.8378C17.1837 17.8927 17.3509 17.932 17.4761 17.7994C17.7028 17.5553 17.9898 17.1539 18.2932 16.7288L18.4751 16.4737C18.7941 16.023 19.1871 15.9279 19.4603 15.9279C19.6203 15.9279 19.7866 15.9599 19.9566 16.0239C20.3816 16.172 22.618 17.2865 22.6409 17.2975L22.8557 17.4026C23.1756 17.5562 23.4278 17.6778 23.5722 17.932C23.7815 18.2959 23.6993 19.2504 23.3812 20.1509C23.0001 21.2288 21.5835 22.0709 20.4447 22.3159C20.218 22.3634 19.9484 22.4137 19.5865 22.4137ZM10.244 7.79824C9.81262 7.79824 9.41962 7.92807 9.21672 8.13561C8.79538 8.56348 7.99019 9.37992 7.99019 11.043C7.99019 12.1227 8.52485 13.4731 9.45709 14.7467L9.56311 14.8975C11.3892 17.5471 13.632 19.5192 15.8776 20.449C17.6077 21.1667 18.7858 21.5004 19.5855 21.5004C19.8597 21.5004 20.0635 21.462 20.25 21.4227C21.1393 21.2307 22.2589 20.5733 22.5157 19.8465C22.7935 19.0629 22.788 18.4604 22.7551 18.3407C22.7533 18.369 22.5888 18.2913 22.4563 18.2273L22.2287 18.1158C21.588 17.7948 19.9319 16.9857 19.6422 16.8842C19.5654 16.855 19.5069 16.8431 19.4576 16.8431C19.4165 16.8431 19.3315 16.8431 19.2163 17.0058L19.0335 17.2618C18.7127 17.7116 18.4102 18.1359 18.1415 18.4248C17.7969 18.7932 17.2056 18.8956 16.6965 18.6835L16.5805 18.636C16.0714 18.4303 14.8787 17.9475 13.4611 16.6858C12.368 15.7112 11.5884 14.5254 11.221 13.9046C10.8344 13.2381 11.2265 12.7792 11.4148 12.5588C11.5345 12.4098 11.6515 12.2864 11.7685 12.162C11.8453 12.0807 11.922 11.9993 12.0006 11.9079C12.2063 11.6711 12.2739 11.5925 12.3626 11.4032C12.3891 11.3511 12.4037 11.277 12.3086 11.0795C12.2392 10.9333 11.795 9.85992 11.4376 8.98953L11.1068 8.18772C10.956 7.82567 10.956 7.82567 10.669 7.8147C10.5374 7.80555 10.3985 7.79824 10.244 7.79824Z" fill="white"/>
<path d="M7.61176 4.13448C7.86414 4.13448 8.06874 3.92988 8.06874 3.6775C8.06874 3.42512 7.86414 3.22052 7.61176 3.22052C7.35938 3.22052 7.15479 3.42512 7.15479 3.6775C7.15479 3.92988 7.35938 4.13448 7.61176 4.13448Z" fill="white"/>
</g>
<defs>
<clipPath id="clip0_3047_1047">
<rect width="29.2466" height="29.2566" fill="white" transform="translate(0.757324 0.0205688)"/>
</clipPath>
</defs>
</svg>
