<svg width="19" height="18" viewBox="0 0 19 18" fill="none" xmlns="http://www.w3.org/2000/svg">
<g clip-path="url(#clip0_3589_1769)">
<path fill-rule="evenodd" clip-rule="evenodd" d="M9.50786 0C4.25026 0 0 4.05625 0 9.07438C0 13.0856 2.72329 16.4811 6.50121 17.6828C6.97355 17.7732 7.14656 17.4876 7.14656 17.2473C7.14656 17.037 7.13099 16.3159 7.13099 15.5646C4.48614 16.1055 3.93537 14.4828 3.93537 14.4828C3.51032 13.4312 2.88054 13.1609 2.88054 13.1609C2.01488 12.605 2.94359 12.605 2.94359 12.605C3.90384 12.6651 4.40771 13.5364 4.40771 13.5364C5.2576 14.9185 6.62713 14.528 7.17809 14.2876C7.25672 13.7016 7.50875 13.296 7.77635 13.0707C5.66688 12.8603 3.44746 12.0791 3.44746 8.59353C3.44746 7.60196 3.82502 6.79071 4.42327 6.15978C4.32889 5.93447 3.99823 5.00283 4.51786 3.7559C4.51786 3.7559 5.32066 3.51547 7.1308 4.68736C7.90578 4.48873 8.70501 4.38768 9.50786 4.38683C10.3107 4.38683 11.129 4.49211 11.8847 4.68736C13.6951 3.51547 14.4979 3.7559 14.4979 3.7559C15.0175 5.00283 14.6866 5.93447 14.5923 6.15978C15.2063 6.79071 15.5683 7.60196 15.5683 8.59353C15.5683 12.0791 13.3488 12.8452 11.2236 13.0707C11.57 13.3561 11.869 13.8969 11.869 14.7533C11.869 15.9702 11.8534 16.9468 11.8534 17.2472C11.8534 17.4876 12.0266 17.7732 12.4987 17.683C16.2767 16.4809 19 13.0856 19 9.07438C19.0155 4.05625 14.7497 0 9.50786 0Z" fill="white"/>
</g>
<defs>
<clipPath id="clip0_3589_1769">
<rect width="19" height="18" fill="white"/>
</clipPath>
</defs>
</svg>
