<svg width="97" height="100" viewBox="0 0 97 100" fill="none" xmlns="http://www.w3.org/2000/svg">
<path d="M0 0H96.242V100H0V0Z" fill="#F7DF1E"/>
<path d="M25.3058 83.5671L32.6709 78.9358C34.0918 81.5535 35.3843 83.7682 38.4847 83.7682C41.4566 83.7682 43.3303 82.5603 43.3303 77.8619V45.9095H52.3746V77.9947C52.3746 87.7281 46.8836 92.1584 38.8724 92.1584C31.6373 92.1584 27.4375 88.2649 25.3057 83.5663" fill="black"/>
<path d="M57.2871 82.5603L64.6513 78.13C66.5899 81.4195 69.1094 83.8359 73.5668 83.8359C77.3143 83.8359 79.704 81.889 79.704 79.2039C79.704 75.9819 77.2492 74.8406 73.1145 72.9617L70.854 71.9541C64.3287 69.0682 60.0001 65.4435 60.0001 57.7909C60.0001 50.7427 65.1683 45.3724 73.244 45.3724C78.9938 45.3724 83.1284 47.4535 86.0998 52.8908L79.058 57.5894C77.5074 54.7032 75.8282 53.5622 73.2442 53.5622C70.5954 53.5622 68.9156 55.3074 68.9156 57.5894C68.9156 60.4087 70.5954 61.5501 74.4712 63.2955L76.7321 64.3024C84.42 67.726 88.7486 71.2162 88.7486 79.0697C88.7486 87.5281 82.353 92.1593 73.7608 92.1593C65.3624 92.1593 59.9356 87.9978 57.2873 82.5603" fill="black"/>
</svg>
