<svg width="25" height="25" viewBox="0 0 25 25" fill="none" xmlns="http://www.w3.org/2000/svg">
<path d="M24.8978 14.0872C25.7726 7.23845 20.936 0.977077 14.0997 0.102235C7.26344 -0.772608 0.977077 4.06402 0.102235 10.9003C-0.772608 17.7366 4.06402 24.0104 10.9003 24.8978C17.7491 25.7726 24.0104 20.936 24.8978 14.0872Z" fill="#FF6C37"/>
<path d="M17.0113 8.02725L11.7372 13.3013L10.25 11.8141C15.4366 6.6275 15.949 7.07742 17.0113 8.02725Z" fill="white"/>
<path d="M11.7341 13.4265C11.6966 13.4265 11.6716 13.414 11.6466 13.389L10.1469 11.9018C10.0969 11.8518 10.0969 11.7768 10.1469 11.7268C15.4209 6.45274 15.9708 6.95265 17.0831 7.95247C17.1081 7.97747 17.1206 8.00246 17.1206 8.03996C17.1206 8.07745 17.1081 8.10245 17.0831 8.12744L11.8091 13.389C11.7966 13.414 11.7591 13.4265 11.7341 13.4265ZM10.4218 11.8143L11.7341 13.1265L16.8207 8.03996C15.8958 7.21511 15.2709 6.96515 10.4218 11.8143Z" fill="#FF6C37"/>
<path d="M13.2458 14.8129L11.8086 13.3756L17.0826 8.10156C18.4949 9.52631 16.3828 11.8384 13.2458 14.8129Z" fill="white"/>
<path d="M13.2489 14.9378C13.2114 14.9378 13.1865 14.9253 13.1615 14.9003L11.7242 13.4631C11.6992 13.4381 11.6992 13.4131 11.6992 13.3756C11.6992 13.3381 11.7117 13.3131 11.7367 13.2881L17.0108 8.01406C17.0608 7.96406 17.1357 7.96406 17.1857 8.01406C17.5107 8.314 17.6856 8.73893 17.6731 9.17635C17.6481 10.5636 16.0734 12.3258 13.3489 14.9003C13.3114 14.9253 13.2739 14.9378 13.2489 14.9378ZM11.9867 13.3756C12.7865 14.1879 13.124 14.5129 13.2489 14.6379C15.3486 12.6382 17.3857 10.5886 17.3982 9.17635C17.4107 8.8514 17.2857 8.52646 17.0733 8.27651L11.9867 13.3756Z" fill="#FF6C37"/>
<path d="M10.2741 11.8496L11.3364 12.9119C11.3614 12.9369 11.3614 12.9619 11.3364 12.9869C11.3239 12.9994 11.3239 12.9994 11.3114 12.9994L9.1118 13.4743C8.99932 13.4868 8.89934 13.4118 8.87434 13.2993C8.86185 13.2368 8.88684 13.1743 8.92434 13.1368L10.1991 11.8621C10.2241 11.8371 10.2616 11.8246 10.2741 11.8496Z" fill="white"/>
<path d="M9.07494 13.5997C8.88748 13.5997 8.75 13.4497 8.75 13.2622C8.75 13.1747 8.78749 13.0873 8.84998 13.0248L10.1248 11.75C10.1997 11.6875 10.2997 11.6875 10.3747 11.75L11.437 12.8123C11.512 12.8748 11.512 12.9873 11.437 13.0623C11.412 13.0873 11.387 13.0997 11.3495 13.1122L9.14993 13.5872C9.12493 13.5872 9.09994 13.5997 9.07494 13.5997ZM10.2372 11.9874L9.01245 13.2122C8.98746 13.2372 8.97496 13.2747 8.99996 13.3122C9.01245 13.3497 9.04995 13.3622 9.08744 13.3497L11.1496 12.8998L10.2372 11.9874Z" fill="#FF6C37"/>
<path d="M19.7975 5.09957C18.9976 4.32471 17.7104 4.3497 16.9355 5.16206C16.1606 5.97441 16.1856 7.24918 16.998 8.02404C17.6604 8.66143 18.6602 8.77391 19.4476 8.29899L18.0228 6.87425L19.7975 5.09957Z" fill="white"/>
<path d="M18.3957 8.71329C17.2084 8.71329 16.2461 7.75096 16.2461 6.56368C16.2461 5.37639 17.2084 4.41406 18.3957 4.41406C18.9456 4.41406 19.483 4.62652 19.8829 5.01395C19.9079 5.03895 19.9204 5.06395 19.9204 5.10144C19.9204 5.13893 19.9079 5.16393 19.8829 5.18892L18.1957 6.87612L19.5205 8.20088C19.5705 8.25087 19.5705 8.32586 19.5205 8.37585C19.508 8.38835 19.508 8.38835 19.4955 8.40084C19.1706 8.60081 18.7831 8.71329 18.3957 8.71329ZM18.3957 4.67652C17.3459 4.67652 16.496 5.52636 16.5085 6.57617C16.5085 7.62598 17.3584 8.47583 18.4082 8.46333C18.6957 8.46333 18.9831 8.40084 19.2456 8.26337L17.9333 6.9636C17.9083 6.93861 17.8958 6.91361 17.8958 6.87612C17.8958 6.83863 17.9083 6.81363 17.9333 6.78863L19.608 5.11394C19.2705 4.82649 18.8456 4.67652 18.3957 4.67652Z" fill="#FF6C37"/>
<path d="M19.8356 5.13828L19.8106 5.11328L18.0234 6.87546L19.4357 8.28771C19.5732 8.20022 19.7106 8.10024 19.8231 7.98776C20.623 7.20041 20.623 5.92563 19.8356 5.13828Z" fill="white"/>
<path d="M19.4482 8.42594C19.4107 8.42594 19.3857 8.41344 19.3607 8.38845L17.9359 6.9637C17.9109 6.93871 17.8984 6.91371 17.8984 6.87622C17.8984 6.83873 17.9109 6.81373 17.9359 6.78874L19.7106 5.01406C19.7606 4.96406 19.8356 4.96406 19.8856 5.01406L19.9231 5.03905C20.7604 5.8764 20.7604 7.22616 19.9356 8.076C19.8106 8.20098 19.6731 8.31346 19.5231 8.40095C19.4857 8.41344 19.4607 8.42594 19.4482 8.42594ZM18.1984 6.87622L19.4607 8.13849C19.5606 8.076 19.6606 7.98852 19.7356 7.91353C20.448 7.20116 20.4855 6.03887 19.7981 5.28901L18.1984 6.87622Z" fill="#FF6C37"/>
<path d="M17.2208 8.2523C16.9209 7.95236 16.4335 7.95236 16.1335 8.2523L11.4219 12.964L12.2092 13.7513L17.1958 9.3771C17.5208 9.10215 17.5458 8.61474 17.2708 8.2898C17.2458 8.2773 17.2333 8.2648 17.2208 8.2523Z" fill="white"/>
<path d="M12.1975 13.8763C12.16 13.8763 12.135 13.8638 12.11 13.8388L11.3226 13.0514C11.2727 13.0014 11.2727 12.9264 11.3226 12.8764L16.0343 8.1648C16.3842 7.81486 16.9466 7.81486 17.2966 8.1648C17.6465 8.51473 17.6465 9.07713 17.2966 9.42707C17.2841 9.43957 17.2716 9.45206 17.2591 9.46456L12.2725 13.8388C12.26 13.8638 12.235 13.8763 12.1975 13.8763ZM11.5976 12.9639L12.21 13.5763L17.1091 9.2771C17.3841 9.05214 17.4091 8.63971 17.1841 8.36476C16.9591 8.08981 16.5467 8.06481 16.2718 8.28977C16.2593 8.30227 16.2468 8.31477 16.2218 8.32727L11.5976 12.9639Z" fill="#FF6C37"/>
<path d="M7.81064 18.325C7.76065 18.3499 7.73565 18.3999 7.74815 18.4499L7.96061 19.3498C8.0106 19.4747 7.93562 19.6247 7.79814 19.6622C7.69816 19.6997 7.58568 19.6622 7.52319 19.5872L6.14844 18.225L10.6351 13.7383L12.1848 13.7633L13.2347 14.8131C12.9847 15.0255 11.4725 16.4878 7.81064 18.325Z" fill="white"/>
<path d="M7.71298 19.7872C7.613 19.7872 7.51302 19.7497 7.45053 19.6747L6.08827 18.3124C6.06328 18.2874 6.05078 18.2624 6.05078 18.2249C6.05078 18.1875 6.06328 18.1625 6.08827 18.1375L10.575 13.6508C10.6 13.6258 10.6375 13.6133 10.6624 13.6133L12.2122 13.6383C12.2497 13.6383 12.2747 13.6508 12.2997 13.6758L13.3495 14.7256C13.3745 14.7506 13.387 14.7881 13.387 14.8256C13.387 14.8631 13.3745 14.8881 13.337 14.913L13.2495 14.988C11.9247 16.1503 10.125 17.3126 7.88795 18.4249L8.10041 19.3123C8.1379 19.4747 8.06292 19.6497 7.91295 19.7372C7.83796 19.7747 7.77547 19.7872 7.71298 19.7872ZM6.33823 18.2249L7.6255 19.4997C7.66299 19.5622 7.73798 19.5872 7.80047 19.5497C7.86295 19.5122 7.88795 19.4372 7.85046 19.3747L7.638 18.4749C7.613 18.3624 7.66299 18.2624 7.76297 18.2125C9.97507 17.1002 11.7623 15.9504 13.0745 14.8131L12.1497 13.8882L10.7124 13.8632L6.33823 18.2249Z" fill="#FF6C37"/>
<path d="M5.08651 19.2975L6.16131 18.2227L7.76102 19.8224L5.21148 19.6474C5.099 19.6349 5.02402 19.5349 5.03651 19.4224C5.03651 19.3725 5.04901 19.3225 5.08651 19.2975Z" fill="white"/>
<path d="M7.76128 19.9356L5.19924 19.7606C5.01178 19.7481 4.8868 19.5857 4.8993 19.3982C4.91179 19.3232 4.93679 19.2482 4.99928 19.1982L6.07409 18.1234C6.12408 18.0734 6.19906 18.0734 6.24905 18.1234L7.84877 19.7231C7.88626 19.7606 7.89876 19.8106 7.87376 19.8606C7.84877 19.9106 7.81127 19.9356 7.76128 19.9356ZM6.16157 18.3984L5.17425 19.3857C5.13675 19.4107 5.13675 19.4732 5.17425 19.4982C5.18674 19.5107 5.19924 19.5232 5.22424 19.5232L7.43634 19.6732L6.16157 18.3984Z" fill="#FF6C37"/>
<path d="M10.1992 14.3138C10.1242 14.3138 10.0742 14.2513 10.0742 14.1888C10.0742 14.1513 10.0867 14.1263 10.1117 14.1013L11.324 12.8891C11.374 12.8391 11.449 12.8391 11.499 12.8891L12.2863 13.6764C12.3238 13.7139 12.3363 13.7514 12.3238 13.8014C12.3113 13.8389 12.2738 13.8764 12.2238 13.8889L10.2242 14.3138C10.2117 14.3138 10.1992 14.3138 10.1992 14.3138ZM11.4115 13.1515L10.5866 13.9764L11.9364 13.6889L11.4115 13.1515Z" fill="#FF6C37"/>
<path d="M12.1863 13.7631L10.8115 14.0631C10.7115 14.0881 10.6115 14.0256 10.5865 13.9256C10.574 13.8631 10.5865 13.8006 10.6365 13.7506L11.3989 12.9883L12.1863 13.7631Z" fill="white"/>
<path d="M10.7851 14.1888C10.6101 14.1888 10.4727 14.0513 10.4727 13.8764C10.4727 13.7889 10.5101 13.7139 10.5601 13.6514L11.3225 12.8891C11.3725 12.8391 11.4475 12.8391 11.4975 12.8891L12.2848 13.6764C12.3223 13.7139 12.3348 13.7514 12.3223 13.8014C12.3098 13.8389 12.2723 13.8764 12.2223 13.8889L10.8476 14.1888C10.8226 14.1888 10.7976 14.1888 10.7851 14.1888ZM11.41 13.1515L10.7351 13.8264C10.7101 13.8514 10.7101 13.8764 10.7226 13.9014C10.7351 13.9264 10.7601 13.9389 10.7976 13.9389L11.9474 13.6889L11.41 13.1515Z" fill="#FF6C37"/>
<path d="M19.8482 6.33738C19.8232 6.2624 19.7357 6.2249 19.6607 6.2499C19.5857 6.27489 19.5482 6.36238 19.5732 6.43737C19.5732 6.44986 19.5857 6.46236 19.5857 6.47486C19.6607 6.62483 19.6357 6.8123 19.5357 6.94977C19.4857 7.01226 19.4982 7.09975 19.5482 7.14974C19.6107 7.19973 19.6982 7.18723 19.7482 7.12474C19.9357 6.88728 19.9732 6.58734 19.8482 6.33738Z" fill="#FF6C37"/>
</svg>
