<svg width="30" height="30" viewBox="0 0 30 30" fill="none" xmlns="http://www.w3.org/2000/svg">
<path d="M5.02896 8.13473H4.98966C2.9031 8.13473 1.38867 6.75052 1.38867 4.84336C1.38867 2.93345 2.93508 1.54651 5.06551 1.54651C7.1603 1.54651 8.65553 2.89597 8.70032 4.82782C8.70032 6.74869 7.15664 8.13473 5.02896 8.13473ZM5.06551 2.46078C3.43867 2.46078 2.30263 3.44087 2.30263 4.84336C2.30263 6.2431 3.4076 7.22137 4.98966 7.22137H5.02896C6.65306 7.22046 7.78636 6.24128 7.78636 4.83879C7.75254 3.3979 6.68504 2.46078 5.06551 2.46078ZM7.32938 26.5344H2.75961C2.50735 26.5344 2.30263 26.3296 2.30263 26.0772V9.62041C2.30263 9.36807 2.50735 9.16328 2.75961 9.16328H7.32938C7.58163 9.16328 7.78636 9.36807 7.78636 9.62041V26.0772C7.78636 26.3296 7.58163 26.5344 7.32938 26.5344ZM3.21658 25.6201H6.8724V10.0775H3.21658V25.6201ZM28.3504 26.5344H22.8666C22.6144 26.5344 22.4096 26.3296 22.4096 26.0772V17.3917C22.4096 15.8795 21.1795 14.6489 19.6678 14.6489C18.1561 14.6489 16.9259 15.8795 16.9259 17.3917V26.0772C16.9259 26.3296 16.7212 26.5344 16.4689 26.5344H10.9852C10.733 26.5344 10.5282 26.3296 10.5282 26.0772V9.62041C10.5282 9.36807 10.733 9.16328 10.9852 9.16328H16.4689C16.7212 9.16328 16.9259 9.36807 16.9259 9.62041V12.376C16.9259 12.6284 16.7212 12.8331 16.4689 12.8331C16.2167 12.8331 16.012 12.6284 16.012 12.376V10.0775H11.4422V25.6201H16.012V17.3917C16.012 15.3748 17.6516 13.7346 19.6678 13.7346C21.684 13.7346 23.3236 15.3748 23.3236 17.3917V25.6201H27.8934V16.0203C27.8934 12.7436 25.2283 10.0775 21.9527 10.0775C20.6878 10.0775 19.4649 10.4487 18.4147 11.15C18.2055 11.289 17.9212 11.2341 17.7814 11.0238C17.6415 10.8135 17.6973 10.5301 17.9084 10.3902C19.1084 9.5875 20.5068 9.16328 21.9527 9.16328C25.7328 9.16328 28.8073 12.2389 28.8073 16.0203V26.0772C28.8073 26.3296 28.6026 26.5344 28.3504 26.5344Z" fill="white"/>
</svg>
